<?xml version="1.0" encoding="utf-8"?>
<!-- Generator: Adobe Illustrator 21.0.2, SVG Export Plug-In . SVG Version: 6.00 Build 0)  -->
<svg version="1.1" id="Layer_1" xmlns="http://www.w3.org/2000/svg" xmlns:xlink="http://www.w3.org/1999/xlink" x="0px" y="0px"
	 viewBox="0 0 638.5 245.6" style="enable-background:new 0 0 638.5 245.6;" xml:space="preserve">
<style type="text/css">
	.st0{fill:#FFFFFF;}
</style>
<title>logo-alt</title>
<g id="Layer_2">
	<g id="Layer_1-2">
		<path class="st0" d="M246.1,0l-0.2,1.4l1.9,3l-0.5,1.4l0.9,1.2l-0.5,0.9l2.1,3L235,57h-6.1l1.2,1.9l-0.5,1.4l0.7,1.2l-0.2,0.9
			l2.1,3L217,112.1H80l-17.8,54.7H8.4l-1.9-3H5.6l-0.9-1.2H3.3l-1.9-3H0L34,54.4h8.4l-0.2-0.5h-0.9l-0.9-1.2h-1.4l-1.9-3h-1.4
			L51.6,0H246.1z M3.3,156.9h1.4l2.8,4.2h50.9l17.8-54.7h137l14.3-43.9l-2.8-4.2l0.5-1.4H35.9L3.3,156.9z M11.9,150.7l28.8-86.5
			h176.9l-11,30.8h-137l-19.8,55.7H11.9z M53.5,2.6L38.9,47.2h1.4l2.8,4.2H231l14.1-43.2L242.3,4l0.5-1.4L53.5,2.6z M235.1,8.8
			l-11.7,32.1H47.6L58.3,8.8H235.1z"/>
		<path class="st0" d="M459,0l-0.2,1.4l1.9,3l-0.5,1.4l0.9,1.2l-0.5,0.9l2.1,3L448,57h-6.1l1.2,1.9l-0.5,1.4l0.7,1.2l-0.2,0.9l2.1,3
			L430,112.1H293l-17.8,54.7h-53.7l-1.9-3h-0.9l-0.9-1.2h-1.4l-1.9-3H213l34-105.2h8.4l-0.2-0.5h-0.9l-0.9-1.2h-1.4l-1.9-3h-1.4
			l16-49.8H459z M216.3,156.9h1.4l2.8,4.2h50.9l17.8-54.7h137l14.3-43.9l-2.8-4.2l0.5-1.4H248.9L216.3,156.9z M224.9,150.7
			l28.8-86.5h176.8l-11,30.8h-137l-19.8,55.7H224.9z M266.5,2.6l-14.5,44.6h1.4l2.8,4.2H444l14.1-43.2L455.3,4l0.5-1.4L266.5,2.6z
			 M448.1,8.8l-11.7,32.1H260.6l10.7-32.1H448.1z"/>
		<path class="st0" d="M634.3,111.3l2.2,4.3l-0.7,1.7l0.8,1.7l-0.3,0.7l2.2,3.7L623,168.2H434.1l-2-3.7h-0.7l-1-1.7h-1.7l-2-3.7h-1
			L477.2,1.1h66.3l-0.5,1l2,3.7l-0.7,1.7l0.8,1.7L545,9.8l2,3.7l-27,96.8h114.8L634.3,111.3z M630.8,114l0.5-1.3H512.8l29.6-102.2
			l-3-5.3l0.6-1.7h-61.6l-49.3,153.4h1.7l3,5.4h185.8l14.2-41.9L630.8,114z M439.1,152.2L483.9,9.1h50.3L502.8,118h122.9l-12.4,35.2
			L439.1,152.2z"/>
	</g>
</g>
<g>
	<path class="st0" d="M1.1,238.4v-27.9h28.2v4.9H7.6v7.3h11.7v5.1H7.6v10.6H1.1z"/>
	<path class="st0" d="M40.2,238.4v-27.9h6.5v27.9H40.2z"/>
	<path class="st0" d="M89.9,215.5H69.7v17.6h20.2v-6.2H79.3v-4.7h16.9v9.6c0,2.5-0.5,4.3-1.4,5.2c-0.9,0.9-2.8,1.4-5.5,1.4H70.1
		c-2.7,0-4.5-0.5-5.5-1.4c-0.9-0.9-1.4-2.7-1.4-5.2v-14.7c0-2.5,0.5-4.3,1.4-5.2c0.9-0.9,2.8-1.4,5.5-1.4h19.2
		c2.7,0,4.5,0.5,5.5,1.4c1,0.9,1.4,2.6,1.4,5v0.6l-6.3,1.1V215.5z"/>
	<path class="st0" d="M112.8,238.4v-27.9h6.5v10.8h20.2v-10.8h6.5v27.9h-6.5v-12h-20.2v12H112.8z"/>
	<path class="st0" d="M176.1,215.5v22.9h-6.5v-22.9h-12.8v-5h32.1v5H176.1z"/>
	<path class="st0" d="M199.7,238.4v-27.9h6.5v27.9H199.7z"/>
	<path class="st0" d="M223.3,238.4v-27.9h4.4l19.6,16.4c0.7,0.5,1.3,1.1,1.8,1.5c0.5,0.5,1,1,1.4,1.5c-0.1-1.6-0.2-2.7-0.2-3.3
		c0-0.7-0.1-1.2-0.1-1.5v-14.6h5.8v27.9h-4.4l-20.5-17.2c-0.5-0.4-0.9-0.8-1.3-1.2s-0.7-0.7-1-1.1c0.1,0.9,0.2,1.7,0.2,2.4
		c0,0.8,0.1,1.4,0.1,2v15.1H223.3z"/>
	<path class="st0" d="M299.2,215.5H279v17.6h20.2v-6.2h-10.6v-4.7h16.9v9.6c0,2.5-0.5,4.3-1.4,5.2c-0.9,0.9-2.8,1.4-5.5,1.4h-19.2
		c-2.7,0-4.5-0.5-5.5-1.4c-0.9-0.9-1.4-2.7-1.4-5.2v-14.7c0-2.5,0.5-4.3,1.4-5.2s2.8-1.4,5.5-1.4h19.2c2.7,0,4.5,0.5,5.5,1.4
		c1,0.9,1.4,2.6,1.4,5v0.6l-6.3,1.1V215.5z"/>
	<path class="st0" d="M345.9,238.4v-27.9H374v4.9h-21.7v7.3h11.7v5.1h-11.7v10.6H345.9z"/>
	<path class="st0" d="M384.4,217.1c0-2.5,0.5-4.3,1.4-5.2s2.8-1.4,5.5-1.4h20.5c2.7,0,4.5,0.5,5.5,1.4s1.4,2.7,1.4,5.2v14.7
		c0,2.5-0.5,4.3-1.4,5.2c-0.9,0.9-2.8,1.4-5.5,1.4h-20.5c-2.7,0-4.5-0.5-5.5-1.4c-0.9-0.9-1.4-2.7-1.4-5.2V217.1z M390.8,233.1h21.4
		v-17.6h-21.4V233.1z"/>
	<path class="st0" d="M435.2,238.4v-27.9H459c2.2,0,3.8,0.4,4.8,1.3c1,0.9,1.5,2.2,1.5,4.1v6.5c0,1.9-0.5,3.3-1.5,4.1
		c-1,0.9-2.6,1.3-4.8,1.3h-3.6l12.9,10.5h-9.3l-11.2-10.5h-6.1v10.5H435.2z M456.1,215.3h-14.6v7.8h14.6c1.1,0,1.9-0.2,2.3-0.5
		c0.4-0.3,0.6-0.9,0.6-1.7v-3.3c0-0.8-0.2-1.4-0.6-1.7C458,215.5,457.3,215.3,456.1,215.3z"/>
	<path class="st0" d="M505.1,238.4v-27.9h6.5v22.6h20.9v5.2H505.1z"/>
	<path class="st0" d="M544.8,238.4v-27.9h6.5v27.9H544.8z"/>
	<path class="st0" d="M568.4,238.4v-27.9h28.2v4.9h-21.7v7.3h11.7v5.1h-11.7v10.6H568.4z"/>
	<path class="st0" d="M607.5,238.4v-27.9H636v4.7h-22v6.2h12.9v4.7h-12.9v6.9h22.3v5.2H607.5z"/>
</g>
</svg>
