<svg xmlns="http://www.w3.org/2000/svg" viewBox="0 0 638.49 168.22"><defs><style>.cls-1{fill:#231f20;}</style></defs><title>logo</title><g id="Layer_2" data-name="Layer 2"><g id="Layer_1-2" data-name="Layer 1"><text></text><path class="cls-1" d="M246.05,0l-.23,1.41,1.88,3-.47,1.41L248.16,7l-.47.94,2.11,3L235,57h-6.1l1.17,1.88-.47,1.41.7,1.17-.23.94,2.11,3L217,112.12H80L62.16,166.77H8.44l-1.88-3H5.63l-.94-1.17H3.28l-1.88-3H0L34,54.42h8.44l-.23-.47h-.94l-.94-1.17H38.94l-1.88-3H35.65L51.6,0ZM3.28,156.92H4.69l2.81,4.22H58.4l17.83-54.65h137l14.31-43.86-2.81-4.22.47-1.41H35.89Zm8.63-6.22L40.7,64.22H217.55L206.58,95H69.6L49.78,150.7ZM53.48,2.58,38.94,47.15h1.41l2.81,4.22H231L245.11,8.21,242.3,4l.47-1.41ZM235.14,8.8,223.41,40.92H47.57L58.29,8.8Z"/><text></text><path class="cls-1" d="M459.05,0l-.23,1.41,1.88,3-.47,1.41L461.16,7l-.47.94,2.11,3L448,57h-6.1l1.17,1.88-.47,1.41.7,1.17-.23.94,2.11,3L430,112.12H293l-17.83,54.65H221.44l-1.88-3h-.94l-.94-1.17h-1.41l-1.88-3H213L247,54.42h8.44l-.23-.47h-.94l-.94-1.17h-1.41l-1.88-3h-1.41L264.6,0ZM216.28,156.92h1.41l2.81,4.22h50.9l17.83-54.65h137l14.31-43.86-2.81-4.22.47-1.41H248.89Zm8.63-6.22L253.7,64.22H430.55L419.58,95h-137L262.78,150.7ZM266.48,2.58,251.94,47.15h1.41l2.81,4.22H444L458.11,8.21,455.3,4l.47-1.41ZM448.14,8.8,436.41,40.92H260.57L271.29,8.8Z"/><path d="M634.31,111.28l2.17,4.34-.67,1.67.84,1.67-.33.67,2.17,3.67-15.54,44.92H434.12l-2-3.68h-.67l-1-1.67h-1.67l-2-3.68h-1L477.23,1.09h66.32l-.5,1,2,3.67-.67,1.67.83,1.67-.17.67,2,3.68L520,110.28H634.81ZM630.8,114l.5-1.34H512.8L542.38,10.44l-3-5.35L540,3.43H478.4L429.11,156.86h1.67l3,5.35H619.61l14.2-41.91ZM439.12,152.19,483.9,9.1h50.29L502.78,118H625.63l-12.36,35.24Z"/></g></g></svg>